<svg width="196" height="73" viewBox="0 0 196 73" fill="none" xmlns="http://www.w3.org/2000/svg">
<path d="M57.0907 46.1717V59.1514H48.2763V72.9898H33.6868V59.1514H0V46.1211L25.9369 0.0101624H48.2771V46.1728L57.0907 46.1717ZM13.525 46.1717H33.6868V8.74672L13.525 46.1717Z" fill="#3C9700"/>
<path fill-rule="evenodd" clip-rule="evenodd" d="M80.1892 72.9611C79.8682 72.939 79.5462 72.9213 79.2252 72.8921C77.4262 72.7232 75.7767 72.1368 74.3121 71.0763C71.7852 69.2464 70.1694 66.8133 69.5255 63.7514C69.2849 62.6007 69.2177 61.4395 69.2911 60.2676C69.3743 58.8923 69.6484 57.5585 70.0854 56.254C70.7832 54.172 71.8357 52.2828 73.1676 50.5414C74.1715 49.2289 75.308 48.0402 76.5603 46.9621C77.7322 45.952 78.7962 44.8367 79.793 43.656C81.0471 42.1675 82.1819 40.5897 83.3024 39.0012C84.293 37.5967 85.2668 36.1834 86.3184 34.8258C87.1091 33.8016 87.9431 32.8154 88.8726 31.9142C90.0357 30.7883 91.319 29.8348 92.8314 29.2166C93.9661 28.7523 95.1451 28.5064 96.3718 28.4808C97.7586 28.4489 99.1286 28.586 100.477 28.9159C102.542 29.4227 104.33 30.4265 105.87 31.8876C106.923 32.8915 107.815 34.0271 108.643 35.2158C109.523 36.4761 110.33 37.7824 111.163 39.0737C112.102 40.5277 113.072 41.9588 114.155 43.312C115.234 44.6607 116.425 45.9051 117.725 47.0434C119.297 48.4205 120.693 49.9532 121.882 51.6744C122.895 53.1505 123.721 54.7204 124.298 56.4167C124.747 57.7381 125.029 59.0895 125.101 60.486C125.212 62.6069 124.846 64.635 123.883 66.5427C122.993 68.3107 121.703 69.7302 120.084 70.8579C118.893 71.6866 117.609 72.3163 116.195 72.6666C115.694 72.7922 115.186 72.8824 114.672 72.9319C114.6 72.939 114.531 72.9522 114.462 72.9628C114.395 73.0009 114.321 72.9726 114.25 72.9814C114.192 72.9894 114.13 72.9628 114.074 73C113.635 73 113.195 73 112.756 73C112.704 72.962 112.645 72.9885 112.589 72.9814C112.538 72.9814 112.489 72.9814 112.439 72.9814C112.397 72.9814 112.352 72.9814 112.311 72.9814C111.187 72.9452 110.096 72.7108 109.008 72.4587C107.165 72.0289 105.358 71.4637 103.524 70.9967C102.039 70.62 100.542 70.314 99.0181 70.1397C97.9621 70.0186 96.9034 70.0053 95.8474 70.0415C95.0027 70.0698 94.1643 70.1999 93.3338 70.3546C91.694 70.6633 90.087 71.1046 88.4791 71.5433C86.7783 72.0103 85.0775 72.4746 83.336 72.7594C82.6276 72.8735 81.9183 72.9717 81.1984 72.9646C81.0507 72.9629 80.9038 72.985 80.7544 72.9814C80.5642 72.9708 80.3767 73.0044 80.1892 72.9611Z" fill="#3C9700"/>
<path fill-rule="evenodd" clip-rule="evenodd" d="M112.681 0.0318393C115.051 0.316629 116.862 1.52124 118.245 3.42102C119.193 4.7238 119.789 6.1849 120.159 7.74682C120.475 9.09205 120.594 10.4576 120.549 11.8391C120.466 14.3775 119.87 16.7885 118.768 19.0756C118.004 20.6605 117.019 22.0898 115.763 23.3227C114.644 24.4185 113.379 25.2941 111.902 25.8398C110.864 26.2228 109.798 26.4121 108.692 26.3466C106.778 26.2361 105.154 25.4754 103.788 24.147C102.624 23.0132 101.831 21.6423 101.281 20.1246C100.898 19.0632 100.658 17.9692 100.533 16.8504C100.447 16.0836 100.412 15.3159 100.437 14.5482C100.493 12.736 100.819 10.9715 101.408 9.25833C102.033 7.43461 102.919 5.75329 104.129 4.24974C105.147 2.98499 106.337 1.9157 107.764 1.12589C108.813 0.544816 109.93 0.168928 111.126 0.0336089C111.162 0.0132667 111.202 0.0221105 111.239 0.0194571C111.277 0.0194571 111.315 0.0194571 111.353 0.0194571C111.407 0.0123816 111.466 0.0389154 111.514 0C111.775 0 112.032 0 112.291 0C112.341 0.0397999 112.398 0.0132661 112.453 0.0194571C112.492 0.0194571 112.528 0.0194571 112.567 0.0194571C112.603 0.0203416 112.644 0.0106127 112.681 0.0318393Z" fill="#3C9700"/>
<path fill-rule="evenodd" clip-rule="evenodd" d="M58.1622 28.02C58.1994 27.2965 58.3294 26.5863 58.5195 25.8876C58.8875 24.53 59.4898 23.2926 60.4282 22.2331C61.4771 21.0506 62.7737 20.2855 64.3268 19.9769C65.588 19.7275 66.8324 19.8345 68.0556 20.2113C69.4618 20.6455 70.7054 21.384 71.8109 22.3454C73.5285 23.8339 74.7596 25.6656 75.6122 27.7617C76.058 28.8593 76.3667 29.9958 76.5374 31.1677C76.6205 31.7364 76.6603 32.3086 76.6718 32.8835C76.6921 33.9749 76.5825 35.0486 76.3118 36.1047C75.951 37.5136 75.3434 38.796 74.3749 39.8936C73.2632 41.1531 71.8772 41.9367 70.2163 42.2064C68.9975 42.4045 67.7991 42.271 66.6263 41.8924C65.0494 41.3804 63.6979 40.5012 62.5075 39.3629C61.3462 38.2556 60.4237 36.9696 59.7047 35.5395C58.9998 34.1368 58.5133 32.658 58.279 31.1023C58.2383 30.8272 58.2047 30.5521 58.1675 30.278C58.1383 30.1524 58.1498 30.0241 58.1198 29.8994C58.1056 29.8472 58.1136 29.7977 58.1109 29.7438C58.1012 29.6774 58.1313 29.6067 58.0906 29.5403C58.0906 29.2043 58.0906 28.869 58.0906 28.5321C58.1534 28.4401 58.1224 28.3375 58.1295 28.2393C58.1348 28.1659 58.1162 28.0881 58.1622 28.02Z" fill="#3C9700"/>
<path fill-rule="evenodd" clip-rule="evenodd" d="M74.804 11.8471C74.8119 9.84561 75.0967 8.04047 75.7662 6.30343C76.2712 4.99003 76.9646 3.78896 77.9305 2.75505C78.9706 1.63888 80.2061 0.838465 81.6964 0.461693C83.1867 0.0831525 84.6513 0.191054 86.0912 0.71199C87.3595 1.1719 88.4659 1.89714 89.4485 2.81254C91.0175 4.27187 92.1408 6.03367 92.9412 8.00863C93.4497 9.26454 93.8 10.5629 93.9999 11.9011C94.1131 12.6599 94.1785 13.4249 94.1944 14.1953C94.2112 15.1646 94.1502 16.1305 93.9901 17.0874C93.6576 19.0871 92.9792 20.9498 91.7693 22.5966C91.0166 23.6181 90.103 24.4628 88.9815 25.0713C87.7283 25.7505 86.3866 26.0344 84.9671 25.9248C83.6837 25.8266 82.5004 25.4074 81.3966 24.7529C79.9567 23.9003 78.791 22.7505 77.8208 21.3973C76.6701 19.7903 75.8794 18.0134 75.3788 16.1039C75.1047 15.0594 74.9295 13.9972 74.8499 12.9199C74.8181 12.5157 74.7907 12.1089 74.804 11.8471Z" fill="#3C9700"/>
<path fill-rule="evenodd" clip-rule="evenodd" d="M137.689 29.1927C137.689 29.2697 137.689 29.3475 137.689 29.4253C137.6 31.3552 137.084 33.1718 136.25 34.9045C135.593 36.2621 134.756 37.4994 133.719 38.5961C132.389 40.0059 130.846 41.1053 129.011 41.7651C127.911 42.1604 126.779 42.355 125.609 42.2904C123.882 42.1931 122.374 41.567 121.105 40.3889C120.058 39.4151 119.367 38.2176 118.932 36.8697C118.54 35.6615 118.382 34.4162 118.422 33.148C118.508 30.3593 119.39 27.8245 120.917 25.5046C121.433 24.7192 122.024 23.994 122.688 23.3307C124.052 21.9713 125.612 20.9259 127.46 20.3333C128.511 19.999 129.585 19.846 130.685 19.9318C132.365 20.0618 133.831 20.6977 135.06 21.8572C136.169 22.9035 136.869 24.1956 137.292 25.6461C137.525 26.4474 137.661 27.2673 137.689 28.1031C137.689 28.1809 137.689 28.2597 137.689 28.3375C137.68 28.6223 137.681 28.9071 137.689 29.1927Z" fill="#3C9700"/>
<path d="M195.779 46.1717V59.1514H186.965V72.9898H172.376V59.1514H138.689V46.1211L164.626 0.0101624H186.966V46.1728L195.779 46.1717ZM152.214 46.1717H172.376V8.74672L152.214 46.1717Z" fill="#3C9700"/>
</svg>
